<svg id="Слой_1" data-name="Слой 1" xmlns="http://www.w3.org/2000/svg" xmlns:xlink="http://www.w3.org/1999/xlink" viewBox="0 0 304.9 320.92"><defs><style>.cls-1{fill:none;}.cls-2{clip-path:url(#clip-path);}.cls-3{fill:#4b7bb1;}</style><clipPath id="clip-path" transform="translate(-103.4 -95.48)"><rect class="cls-1" width="512" height="512"/></clipPath></defs><title>logo</title><g class="cls-2"><path class="cls-3" d="M345.4,342.4c-.3,5.3-5.7,10-10.9,10.4-11,.8-16.1,1.1-26.8,1.7-5.1.3-9.2-3.9-9.3-9.2,0-2.2-.1-3.3-.1-5.5a9.61,9.61,0,0,1,9.2-10c11.2-.5,16.9-.8,28.1-1.6a9.14,9.14,0,0,1,10,8.9A47,47,0,0,1,345.4,342.4Zm-131.7,3.1c-.1,5.4-4.2,9.3-9.1,9-10.4-.5-15.3-.9-26.2-1.7-5.1-.4-10.3-3.8-10.9-9.3-.3-2.2-.4-3.4-.6-5.8a8.88,8.88,0,0,1,9.6-9.6c11.2.8,16.8,1.1,28.1,1.6a9.82,9.82,0,0,1,9.3,10.2C213.8,342.2,213.7,343.3,213.7,345.5Zm122.7-52.6c-21.2,1.5-49.7,2.4-80.2,2.4s-58.9-.8-80.2-2.4c-17.3-1.2-27.3-2.7-33.3-4.5.6,25.8,1.8,51.7,3.5,78a18.42,18.42,0,0,0,5.3,12.9,7.52,7.52,0,0,0,3.9,2.1v25.4a9.6,9.6,0,0,0,9.6,9.6h27a9.6,9.6,0,0,0,9.6-9.6V381.4H310v25.4a9.6,9.6,0,0,0,9.6,9.6h27a9.6,9.6,0,0,0,9.6-9.6V381.4a7.52,7.52,0,0,0,3.9-2.1,18.42,18.42,0,0,0,5.3-12.9c1.8-26.3,2.9-52.2,3.5-77.9C363.3,290.2,353.3,291.7,336.4,292.9Z" transform="translate(-103.4 -95.48)"/></g><g class="cls-2"><path class="cls-3" d="M359.6,264l-8.5-1.8c-4.8-4.5-11.9-7.7-20-9.8l-44-42.7V170.8a3.6,3.6,0,0,0-7.2,0v70.3a3.6,3.6,0,1,0,7.2,0v-26l32.1,35.2c-19.5-2.1-41.2,1.6-52,11.5l-4.9.1V135.7H350a9.6,9.6,0,0,1,9.6,9.6Zm-108-2-71,1.2,43.9-48.1v26a3.6,3.6,0,0,0,7.2,0V170.8a3.6,3.6,0,1,0-7.2,0v38.9l-55.3,53.6-14.9.2V145.4a9.6,9.6,0,0,1,9.6-9.6h87.7ZM398.8,135.7h-7.1a9.75,9.75,0,0,0-9.6,8.8H366.6c-.3-5.5-.6-11-1-16.6v-1.6c-41.4-41.1-178.1-41.1-219.4,0v1.6c-.4,5.6-.7,11.1-1,16.6H129.7a9.6,9.6,0,0,0-9.6-8.8H113a9.6,9.6,0,0,0-9.6,9.6v50.8a9.6,9.6,0,0,0,9.6,9.6h7.1a9.6,9.6,0,0,0,9.6-9.6V151.7h15c-2.3,41.9-3,83-2.3,124.4a4.31,4.31,0,0,1,1.5,1.5c18.2,9.2,206,9.2,224.2,0a4.89,4.89,0,0,1,1.2-1.3c.7-41.4-.1-82.6-2.3-124.7h15V196a9.6,9.6,0,0,0,9.6,9.6h7.1a9.6,9.6,0,0,0,9.6-9.6V145.2A9.49,9.49,0,0,0,398.8,135.7Z" transform="translate(-103.4 -95.48)"/></g></svg>